# xmcd
#
# Track frame offsets: 
#        150
#        14115
#        25587
#        42207
#        51118
#        63702
#        75713
#        87346
#        100839
#        111392
#        126053
#
# Disc length: 1846 seconds
#
# Revision: 5
# Processed by: cddbd v1.5.2PL0 Copyright (c) Steve Scherf et al.
# Submitted via: ExactAudioCopyFreeDBPlugin 1.0
#
DISCID=8f07340b
DTITLE=Glen Campbell - 1968 - Wichita Lineman
DYEAR=1968
DGENRE=Pop
TTITLE0=Wichita Lineman
TTITLE1=(Sittin' On) The Dock Of The Bay
TTITLE2=If You Go Away
TTITLE3=Ann
TTITLE4=Words
TTITLE5=Fate Of Man
TTITLE6=Dreams Of The Everyday Housewife
TTITLE7=The Straight Life
TTITLE8=Reason To Believe
TTITLE9=You Better Sit Down Kids
TTITLE10=That's Not Home
EXTD=
EXTT0=
EXTT1=
EXTT2=
EXTT3=
EXTT4=
EXTT5=
EXTT6=
EXTT7=
EXTT8=
EXTT9=
EXTT10=
PLAYORDER=
